<svg xmlns="http://www.w3.org/2000/svg" width="1810" height="104" viewBox="0 0 1810 104"><defs><mask id="ma6mb" width="2" height="2" x="-1" y="-1"><path fill="#fff" d="M962.3-318.7h1125.4V838.7H962.3z"/><path d="M1279.517-315.223l751.88 208.053c40.38 11.174 64.058 52.968 52.884 93.35L1864.09 781.927c-11.174 40.38-52.968 64.057-93.35 52.884l-751.88-208.054c-40.38-11.174-64.057-52.967-52.884-93.348l220.194-795.748c11.173-40.382 52.968-64.06 93.348-52.885z"/></mask><filter id="ma6ma" width="1186.5" height="1222.1" x="928.5" y="-346" filterUnits="userSpaceOnUse"><feOffset dx="-6.5" dy="10.1" in="SourceGraphic" result="FeOffset1023Out"/><feGaussianBlur in="FeOffset1023Out" result="FeGaussianBlur1024Out" stdDeviation="6.92 6.92"/></filter><mask id="ma6md" width="2" height="2" x="-1" y="-1"><path fill="#fff" d="M83.1-525.9h1233.8v876.8H83.1z"/><path d="M299.747-521.028l970.055 280.463c32.818 9.488 51.73 43.784 42.242 76.601L1176.752 303.98c-9.489 32.818-43.784 51.73-76.601 42.24L130.095 65.758c-32.818-9.488-51.73-43.784-42.241-76.6l135.292-467.944c9.488-32.817 43.784-51.73 76.601-42.241z"/></mask><filter id="ma6mc" width="1272.9" height="918.5" x="61.1" y="-543" filterUnits="userSpaceOnUse"><feOffset dx="-4.9" dy="7.5" in="SourceGraphic" result="FeOffset1039Out"/><feGaussianBlur in="FeOffset1039Out" result="FeGaussianBlur1040Out" stdDeviation="2.84 2.84"/></filter><linearGradient id="ma6me" x1="1314.4" x2="85.4" y1="-263.48" y2="88.67" gradientUnits="userSpaceOnUse"><stop offset="0" stop-color="#4566d0"/><stop offset="1" stop-color="#324dc5"/></linearGradient><mask id="ma6mg" width="2.01" height="2.01" x="-1" y="-1.01"><path fill="#fff" d="M-120.5-203.5h1429v1018h-1429z"/><path d="M132.97-193.712l1117.199 323.004c37.796 10.928 59.576 50.425 48.649 88.22l-155.815 538.926c-10.927 37.795-50.425 59.576-88.22 48.649L-62.418 482.08c-37.795-10.928-59.576-50.425-48.649-88.221L44.748-145.063c10.928-37.796 50.426-59.577 88.221-48.649z"/></mask><filter id="ma6mf" width="1518.5" height="1111.1" x="-168.5" y="-245" filterUnits="userSpaceOnUse"><feOffset dx="-6.5" dy="10.1" in="SourceGraphic" result="FeOffset1070Out"/><feGaussianBlur in="FeOffset1070Out" result="FeGaussianBlur1071Out" stdDeviation="12.6 12.6"/></filter><linearGradient id="ma6mh" x1="1302.11" x2="-113.89" y1="102.47" y2="508.91" gradientUnits="userSpaceOnUse"><stop offset="0" stop-color="#4566d0"/><stop offset="1" stop-color="#324dc5"/></linearGradient><mask id="ma6mj" width="2.01" height="2.01" x="-1" y="-1.01"><path fill="#fff" d="M-120.5-203.5h1429v1018h-1429z"/><path d="M132.97-193.712l1117.199 323.004c37.796 10.928 59.576 50.425 48.649 88.22l-155.815 538.926c-10.927 37.795-50.425 59.576-88.22 48.649L-62.418 482.08c-37.795-10.928-59.576-50.425-48.649-88.221L44.748-145.063c10.928-37.796 50.426-59.577 88.221-48.649z"/></mask><filter id="ma6mi" width="1518.5" height="1111.1" x="-168.5" y="-245" filterUnits="userSpaceOnUse"><feOffset dx="-6.5" dy="10.1" in="SourceGraphic" result="FeOffset1101Out"/><feGaussianBlur in="FeOffset1101Out" result="FeGaussianBlur1102Out" stdDeviation="12.6 12.6"/></filter><linearGradient id="ma6mk" x1="1302.11" x2="-113.89" y1="102.47" y2="508.91" gradientUnits="userSpaceOnUse"><stop offset="0" stop-color="#4566d0"/><stop offset="1" stop-color="#324dc5"/></linearGradient><mask id="ma6mm" width="2.01" height="2.01" x="-1" y="-1.01"><path fill="#fff" d="M1133.5-191.5h1429v1018h-1429z"/><path d="M1386.969-181.712l1117.2 323.004c37.795 10.928 59.576 50.426 48.649 88.221l-155.815 538.925c-10.927 37.795-50.425 59.576-88.221 48.649l-1117.2-323.006c-37.795-10.927-59.575-50.425-48.648-88.22l155.815-538.924c10.927-37.796 50.425-59.577 88.22-48.649z"/></mask><filter id="ma6ml" width="1518.5" height="1111.1" x="1085.5" y="-233" filterUnits="userSpaceOnUse"><feOffset dx="-6.5" dy="10.1" in="SourceGraphic" result="FeOffset1132Out"/><feGaussianBlur in="FeOffset1132Out" result="FeGaussianBlur1133Out" stdDeviation="12.6 12.6"/></filter><linearGradient id="ma6mn" x1="2556.11" x2="1140.11" y1="114.47" y2="520.91" gradientUnits="userSpaceOnUse"><stop offset="0" stop-color="#4566d0"/><stop offset="1" stop-color="#324dc5"/></linearGradient></defs><g><g clip-path="url(#clip-1391)"><g filter="url(#ma6ma)"><path fill="none" stroke="#121314" stroke-opacity=".1" stroke-width="1.4" d="M1279.517-315.223l751.88 208.053c40.38 11.174 64.058 52.968 52.884 93.35L1864.09 781.927c-11.174 40.38-52.968 64.057-93.35 52.884l-751.88-208.054c-40.38-11.174-64.057-52.967-52.884-93.348l220.194-795.748c11.173-40.382 52.968-64.06 93.348-52.885z" mask="url(&quot;#ma6mb&quot;)"/><path fill="#121314" fill-opacity=".1" d="M1279.517-315.223l751.88 208.053c40.38 11.174 64.058 52.968 52.884 93.35L1864.09 781.927c-11.174 40.38-52.968 64.057-93.35 52.884l-751.88-208.054c-40.38-11.174-64.057-52.967-52.884-93.348l220.194-795.748c11.173-40.382 52.968-64.06 93.348-52.885z"/></g><path fill="#fafafc" d="M1279.517-315.223l751.88 208.053c40.38 11.174 64.058 52.968 52.884 93.35L1864.09 781.927c-11.174 40.38-52.968 64.057-93.35 52.884l-751.88-208.054c-40.38-11.174-64.057-52.967-52.884-93.348l220.194-795.748c11.173-40.382 52.968-64.06 93.348-52.885z"/></g><g clip-path="url(#clip-1391)"><g filter="url(#ma6mc)"><path fill="none" stroke="#060809" stroke-opacity=".21" stroke-width="3.8" d="M299.747-521.028l970.055 280.463c32.818 9.488 51.73 43.784 42.242 76.601L1176.752 303.98c-9.489 32.818-43.784 51.73-76.601 42.24L130.095 65.758c-32.818-9.488-51.73-43.784-42.241-76.6l135.292-467.944c9.488-32.817 43.784-51.73 76.601-42.241z" mask="url(&quot;#ma6md&quot;)"/><path fill="#060809" fill-opacity=".21" d="M299.747-521.028l970.055 280.463c32.818 9.488 51.73 43.784 42.242 76.601L1176.752 303.98c-9.489 32.818-43.784 51.73-76.601 42.24L130.095 65.758c-32.818-9.488-51.73-43.784-42.241-76.6l135.292-467.944c9.488-32.817 43.784-51.73 76.601-42.241z"/></g><path fill="url(#ma6me)" d="M299.747-521.028l970.055 280.463c32.818 9.488 51.73 43.784 42.242 76.601L1176.752 303.98c-9.489 32.818-43.784 51.73-76.601 42.24L130.095 65.758c-32.818-9.488-51.73-43.784-42.241-76.6l135.292-467.944c9.488-32.817 43.784-51.73 76.601-42.241z"/></g><g clip-path="url(#clip-1391)"><g filter="url(#ma6mf)"><path fill="none" stroke="#060809" stroke-opacity=".13" stroke-width="13" d="M132.97-193.712l1117.199 323.004c37.796 10.928 59.576 50.425 48.649 88.22l-155.815 538.926c-10.927 37.795-50.425 59.576-88.22 48.649L-62.418 482.08c-37.795-10.928-59.576-50.425-48.649-88.221L44.748-145.063c10.928-37.796 50.426-59.577 88.221-48.649z" mask="url(&quot;#ma6mg&quot;)"/><path fill="#060809" fill-opacity=".13" d="M132.97-193.712l1117.199 323.004c37.796 10.928 59.576 50.425 48.649 88.22l-155.815 538.926c-10.927 37.795-50.425 59.576-88.22 48.649L-62.418 482.08c-37.795-10.928-59.576-50.425-48.649-88.221L44.748-145.063c10.928-37.796 50.426-59.577 88.221-48.649z"/></g><path fill="url(#ma6mh)" d="M132.97-193.712l1117.199 323.004c37.796 10.928 59.576 50.425 48.649 88.22l-155.815 538.926c-10.927 37.795-50.425 59.576-88.22 48.649L-62.418 482.08c-37.795-10.928-59.576-50.425-48.649-88.221L44.748-145.063c10.928-37.796 50.426-59.577 88.221-48.649z"/></g><g clip-path="url(#clip-1391)" opacity=".9"><g filter="url(#ma6mi)"><path fill="none" stroke="#060809" stroke-opacity=".13" stroke-width="13" d="M132.97-193.712l1117.199 323.004c37.796 10.928 59.576 50.425 48.649 88.22l-155.815 538.926c-10.927 37.795-50.425 59.576-88.22 48.649L-62.418 482.08c-37.795-10.928-59.576-50.425-48.649-88.221L44.748-145.063c10.928-37.796 50.426-59.577 88.221-48.649z" mask="url(&quot;#ma6mj&quot;)"/><path fill="#060809" fill-opacity=".13" d="M132.97-193.712l1117.199 323.004c37.796 10.928 59.576 50.425 48.649 88.22l-155.815 538.926c-10.927 37.795-50.425 59.576-88.22 48.649L-62.418 482.08c-37.795-10.928-59.576-50.425-48.649-88.221L44.748-145.063c10.928-37.796 50.426-59.577 88.221-48.649z"/></g><path fill="url(#ma6mk)" d="M132.97-193.712l1117.199 323.004c37.796 10.928 59.576 50.425 48.649 88.22l-155.815 538.926c-10.927 37.795-50.425 59.576-88.22 48.649L-62.418 482.08c-37.795-10.928-59.576-50.425-48.649-88.221L44.748-145.063c10.928-37.796 50.426-59.577 88.221-48.649z"/></g><g clip-path="url(#clip-1391)" opacity=".9"><g filter="url(#ma6ml)"><path fill="none" stroke="#060809" stroke-opacity=".13" stroke-width="13" d="M1386.969-181.712l1117.2 323.004c37.795 10.928 59.576 50.426 48.649 88.221l-155.815 538.925c-10.927 37.795-50.425 59.576-88.221 48.649l-1117.2-323.006c-37.795-10.927-59.575-50.425-48.648-88.22l155.815-538.924c10.927-37.796 50.425-59.577 88.22-48.649z" mask="url(&quot;#ma6mm&quot;)"/><path fill="#060809" fill-opacity=".13" d="M1386.969-181.712l1117.2 323.004c37.795 10.928 59.576 50.426 48.649 88.221l-155.815 538.925c-10.927 37.795-50.425 59.576-88.221 48.649l-1117.2-323.006c-37.795-10.927-59.575-50.425-48.648-88.22l155.815-538.924c10.927-37.796 50.425-59.577 88.22-48.649z"/></g><path fill="url(#ma6mn)" d="M1386.969-181.712l1117.2 323.004c37.795 10.928 59.576 50.426 48.649 88.221l-155.815 538.925c-10.927 37.795-50.425 59.576-88.221 48.649l-1117.2-323.006c-37.795-10.927-59.575-50.425-48.648-88.22l155.815-538.924c10.927-37.796 50.425-59.577 88.22-48.649z"/></g></g></svg>